<?xml version="1.0" encoding="UTF-8"?>
<svg xmlns="http://www.w3.org/2000/svg" xmlns:xlink="http://www.w3.org/1999/xlink" width="auto" height="auto" viewBox="0 0 127 83" version="1.1">
<defs>
<linearGradient id="linear0" gradientUnits="userSpaceOnUse" x1="-108.90347" y1="2124.834" x2="-1137.1982" y2="2110.6506" gradientTransform="matrix(0.122881,0,0,0.123551,140.293649,-204.348969)">
<stop offset="0" style="stop-color:rgb(24.313725%,50.980392%,95.686275%);stop-opacity:1;"/>
<stop offset="1" style="stop-color:rgb(57.647059%,86.27451%,96.862745%);stop-opacity:1;"/>
</linearGradient>
</defs>
<g id="surface1">
<path style=" stroke:none;fill-rule:nonzero;fill:url(#linear0);" d="M 72.808594 1.199219 C 60.464844 1.222656 49.09375 7.945312 43.066406 18.777344 C 40.515625 17.53125 37.722656 16.878906 34.886719 16.875 C 25.714844 16.902344 17.90625 23.597656 16.4375 32.703125 C 6.84375 36.742188 0.601562 46.175781 0.601562 56.632812 C 0.613281 70.957031 12.171875 82.5625 26.417969 82.554688 C 27.5 82.546875 28.582031 82.46875 29.652344 82.320312 L 101.390625 82.320312 C 101.765625 82.347656 102.144531 82.367188 102.523438 82.375 C 102.882812 82.367188 103.242188 82.347656 103.601562 82.320312 L 105.316406 82.320312 L 105.316406 82.191406 C 117.40625 80.753906 126.519531 70.40625 126.527344 58.109375 L 126.527344 58.0625 C 126.5 46.425781 118.296875 36.445312 106.976562 34.28125 C 106.296875 15.804688 91.199219 1.183594 72.808594 1.199219 Z M 72.808594 1.199219 "/>
</g>
</svg>
