<?xml version="1.0" encoding="UTF-8"?>
<svg xmlns="http://www.w3.org/2000/svg" xmlns:xlink="http://www.w3.org/1999/xlink" width="auto" height="auto" viewBox="0 0 128 128" version="1.1">
<g id="surface1">
<path style=" stroke:none;fill-rule:nonzero;fill:rgb(50%,50%,50%);fill-opacity:1;" d="M 116.144531 86.519531 L 116.144531 24.890625 C 116.144531 22.289062 114.011719 20.152344 111.40625 20.152344 L 16.59375 20.152344 C 13.988281 20.152344 11.851562 22.277344 11.851562 24.890625 L 11.851562 86.519531 L 0 100.742188 C 0 104.660156 3.183594 107.847656 7.109375 107.847656 L 120.890625 107.847656 C 124.8125 107.847656 128 104.660156 128 100.742188 Z M 73.488281 105.484375 L 54.523438 105.484375 C 53.867188 105.484375 53.335938 104.957031 53.335938 104.296875 C 53.335938 103.640625 53.867188 103.113281 54.523438 103.113281 L 73.488281 103.113281 C 74.140625 103.113281 74.675781 103.640625 74.675781 104.296875 C 74.65625 104.960938 74.136719 105.484375 73.488281 105.484375 Z M 44.457031 100.746094 L 48.074219 96.40625 L 79.917969 96.40625 L 83.539062 100.746094 Z M 109.472656 78.136719 C 109.472656 80.421875 107.609375 82.273438 105.339844 82.273438 L 22.660156 82.273438 C 20.386719 82.273438 18.527344 80.40625 18.527344 78.136719 L 18.527344 28.546875 C 18.527344 26.257812 20.386719 24.410156 22.660156 24.410156 L 105.339844 24.410156 C 107.613281 24.410156 109.472656 26.273438 109.472656 28.546875 C 109.472656 28.546875 109.472656 78.136719 109.472656 78.136719 Z M 109.472656 78.136719 "/>
</g>
</svg>
