<?xml version="1.0" encoding="UTF-8"?>
<svg xmlns="http://www.w3.org/2000/svg" xmlns:xlink="http://www.w3.org/1999/xlink" width="auto" height="auto" viewBox="0 0 127 82" version="1.1">
<g id="surface1">
<path style=" stroke:none;fill-rule:nonzero;fill:rgb(1.176471%,39.215686%,72.156863%);fill-opacity:1;" d="M 76.726562 55.335938 L 102.941406 30.074219 C 97.496094 8.679688 75.867188 -4.21875 54.636719 1.269531 C 45.074219 3.742188 36.769531 9.714844 31.34375 18.023438 C 31.75 18.011719 76.726562 55.335938 76.726562 55.335938 Z M 76.726562 55.335938 "/>
<path style=" stroke:none;fill-rule:nonzero;fill:rgb(0%,47.058824%,83.137255%);fill-opacity:1;" d="M 48.429688 22.777344 L 48.425781 22.78125 C 43.417969 19.65625 37.640625 18.003906 31.75 18.011719 C 31.613281 18.011719 31.480469 18.019531 31.34375 18.019531 C 13.816406 18.238281 -0.214844 32.734375 0.00390625 50.394531 C 0.0820312 56.800781 2.066406 63.035156 5.703125 68.289062 L 44.976562 63.332031 L 75.085938 38.867188 Z M 48.429688 22.777344 "/>
<path style=" stroke:none;fill-rule:nonzero;fill:rgb(7.843137%,56.470588%,87.45098%);fill-opacity:1;" d="M 102.941406 30.074219 C 102.363281 30.035156 101.785156 30.007812 101.199219 30.007812 C 97.683594 30.003906 94.203125 30.726562 90.972656 32.132812 L 75.085938 38.867188 L 92.601562 60.667969 L 123.910156 68.335938 C 130.667969 55.695312 125.976562 39.929688 113.433594 33.125 C 110.191406 31.363281 106.613281 30.324219 102.941406 30.074219 Z M 102.941406 30.074219 "/>
<path style=" stroke:none;fill-rule:nonzero;fill:rgb(15.686275%,65.882353%,91.764706%);fill-opacity:1;" d="M 5.703125 68.289062 C 11.632812 76.878906 21.363281 82 31.75 81.992188 L 101.199219 81.992188 C 110.6875 81.996094 119.410156 76.75 123.910156 68.335938 L 75.085938 38.867188 Z M 5.703125 68.289062 "/>
</g>
</svg>
